<mxfile host="app.diagrams.net" agent="Mozilla/5.0 (Windows NT 10.0; Win64; x64) AppleWebKit/537.36 (KHTML, like Gecko) Chrome/130.0.0.0 Safari/537.36" version="24.8.6">
  <diagram name="Page-1" id="zlv62F5g4ZdggqDwZbUX">
    <mxGraphModel dx="1050" dy="557" grid="1" gridSize="10" guides="1" tooltips="1" connect="1" arrows="1" fold="1" page="1" pageScale="1" pageWidth="850" pageHeight="1100" math="0" shadow="0">
      <root>
        <mxCell id="0" />
        <mxCell id="1" parent="0" />
        <mxCell id="6A9R2vZPu0vE_zY2NeRu-18" value="" style="edgeStyle=orthogonalEdgeStyle;rounded=0;orthogonalLoop=1;jettySize=auto;html=1;" edge="1" parent="1" source="6A9R2vZPu0vE_zY2NeRu-1" target="6A9R2vZPu0vE_zY2NeRu-17">
          <mxGeometry relative="1" as="geometry" />
        </mxCell>
        <mxCell id="6A9R2vZPu0vE_zY2NeRu-1" value="" style="shape=image;html=1;verticalAlign=top;verticalLabelPosition=bottom;labelBackgroundColor=#ffffff;imageAspect=0;aspect=fixed;image=https://cdn3.iconfinder.com/data/icons/cad-database-presentation-spreadsheet-vector-fil-2/512/19-128.png" vertex="1" parent="1">
          <mxGeometry x="30" y="170" width="90" height="90" as="geometry" />
        </mxCell>
        <mxCell id="6A9R2vZPu0vE_zY2NeRu-24" value="" style="edgeStyle=orthogonalEdgeStyle;rounded=0;orthogonalLoop=1;jettySize=auto;html=1;" edge="1" parent="1" source="6A9R2vZPu0vE_zY2NeRu-5" target="6A9R2vZPu0vE_zY2NeRu-23">
          <mxGeometry relative="1" as="geometry" />
        </mxCell>
        <mxCell id="6A9R2vZPu0vE_zY2NeRu-5" value="" style="points=[];aspect=fixed;html=1;align=center;shadow=0;dashed=0;fillColor=#FF6A00;strokeColor=none;shape=mxgraph.alibaba_cloud.kafka;" vertex="1" parent="1">
          <mxGeometry x="368" y="170" width="108" height="80" as="geometry" />
        </mxCell>
        <mxCell id="6A9R2vZPu0vE_zY2NeRu-6" value="" style="html=1;verticalLabelPosition=bottom;align=center;labelBackgroundColor=#ffffff;verticalAlign=top;strokeWidth=2;strokeColor=#0080F0;shadow=0;dashed=0;shape=mxgraph.ios7.icons.data;" vertex="1" parent="1">
          <mxGeometry x="50" y="180" width="30" height="40" as="geometry" />
        </mxCell>
        <mxCell id="6A9R2vZPu0vE_zY2NeRu-7" value="" style="outlineConnect=0;dashed=0;verticalLabelPosition=bottom;verticalAlign=top;align=center;html=1;shape=mxgraph.aws3.ec2;fillColor=#F58534;gradientColor=none;" vertex="1" parent="1">
          <mxGeometry x="390.5" y="260" width="63" height="60" as="geometry" />
        </mxCell>
        <mxCell id="6A9R2vZPu0vE_zY2NeRu-15" value="&lt;h3&gt;Kafka&lt;/h3&gt;" style="text;html=1;align=center;verticalAlign=middle;whiteSpace=wrap;rounded=0;" vertex="1" parent="1">
          <mxGeometry x="380" y="210" width="60" height="30" as="geometry" />
        </mxCell>
        <mxCell id="6A9R2vZPu0vE_zY2NeRu-16" value="Amazon EC2" style="text;html=1;align=center;verticalAlign=middle;whiteSpace=wrap;rounded=0;fontFamily=Times New Roman;" vertex="1" parent="1">
          <mxGeometry x="395" y="320" width="60" height="30" as="geometry" />
        </mxCell>
        <mxCell id="6A9R2vZPu0vE_zY2NeRu-19" value="" style="edgeStyle=orthogonalEdgeStyle;rounded=0;orthogonalLoop=1;jettySize=auto;html=1;" edge="1" parent="1" source="6A9R2vZPu0vE_zY2NeRu-17" target="6A9R2vZPu0vE_zY2NeRu-15">
          <mxGeometry relative="1" as="geometry">
            <Array as="points">
              <mxPoint x="360" y="215" />
              <mxPoint x="360" y="215" />
            </Array>
          </mxGeometry>
        </mxCell>
        <mxCell id="6A9R2vZPu0vE_zY2NeRu-17" value="" style="shape=singleArrow;whiteSpace=wrap;html=1;arrowWidth=0.4;arrowSize=0.4;verticalAlign=top;labelBackgroundColor=#ffffff;" vertex="1" parent="1">
          <mxGeometry x="205" y="185" width="80" height="60" as="geometry" />
        </mxCell>
        <mxCell id="6A9R2vZPu0vE_zY2NeRu-22" value="&lt;h1&gt;&lt;font face=&quot;Times New Roman&quot;&gt;Producer&lt;/font&gt;&lt;/h1&gt;" style="text;html=1;align=center;verticalAlign=middle;whiteSpace=wrap;rounded=0;" vertex="1" parent="1">
          <mxGeometry x="170" y="130" width="170" height="50" as="geometry" />
        </mxCell>
        <mxCell id="6A9R2vZPu0vE_zY2NeRu-27" value="" style="edgeStyle=orthogonalEdgeStyle;rounded=0;orthogonalLoop=1;jettySize=auto;html=1;" edge="1" parent="1" source="6A9R2vZPu0vE_zY2NeRu-23" target="6A9R2vZPu0vE_zY2NeRu-26">
          <mxGeometry relative="1" as="geometry">
            <Array as="points">
              <mxPoint x="700" y="210" />
              <mxPoint x="700" y="210" />
            </Array>
          </mxGeometry>
        </mxCell>
        <mxCell id="6A9R2vZPu0vE_zY2NeRu-23" value="" style="shape=singleArrow;whiteSpace=wrap;html=1;arrowWidth=0.4;arrowSize=0.4;fillColor=#FF6A00;strokeColor=none;shadow=0;dashed=0;" vertex="1" parent="1">
          <mxGeometry x="570" y="180" width="80" height="60" as="geometry" />
        </mxCell>
        <mxCell id="6A9R2vZPu0vE_zY2NeRu-25" value="&lt;h1&gt;&lt;font face=&quot;Times New Roman&quot;&gt;Consumer&lt;/font&gt;&lt;/h1&gt;" style="text;html=1;align=center;verticalAlign=middle;whiteSpace=wrap;rounded=0;" vertex="1" parent="1">
          <mxGeometry x="525" y="130" width="170" height="50" as="geometry" />
        </mxCell>
        <mxCell id="6A9R2vZPu0vE_zY2NeRu-26" value="" style="sketch=0;points=[[0,0,0],[0.25,0,0],[0.5,0,0],[0.75,0,0],[1,0,0],[0,1,0],[0.25,1,0],[0.5,1,0],[0.75,1,0],[1,1,0],[0,0.25,0],[0,0.5,0],[0,0.75,0],[1,0.25,0],[1,0.5,0],[1,0.75,0]];outlineConnect=0;fontColor=#232F3E;fillColor=#7AA116;strokeColor=#ffffff;dashed=0;verticalLabelPosition=bottom;verticalAlign=top;align=center;html=1;fontSize=12;fontStyle=0;aspect=fixed;shape=mxgraph.aws4.resourceIcon;resIcon=mxgraph.aws4.s3;" vertex="1" parent="1">
          <mxGeometry x="720" y="170" width="78" height="78" as="geometry" />
        </mxCell>
        <mxCell id="6A9R2vZPu0vE_zY2NeRu-30" value="" style="edgeStyle=orthogonalEdgeStyle;rounded=0;orthogonalLoop=1;jettySize=auto;html=1;" edge="1" parent="1" source="6A9R2vZPu0vE_zY2NeRu-28">
          <mxGeometry relative="1" as="geometry">
            <mxPoint x="760" y="380" as="targetPoint" />
          </mxGeometry>
        </mxCell>
        <mxCell id="6A9R2vZPu0vE_zY2NeRu-28" value="&lt;h3&gt;AWS S3&lt;/h3&gt;" style="text;html=1;align=center;verticalAlign=middle;whiteSpace=wrap;rounded=0;" vertex="1" parent="1">
          <mxGeometry x="729" y="250" width="60" height="30" as="geometry" />
        </mxCell>
        <mxCell id="6A9R2vZPu0vE_zY2NeRu-31" value="&lt;h3&gt;Dataset&lt;/h3&gt;" style="text;html=1;align=center;verticalAlign=middle;whiteSpace=wrap;rounded=0;" vertex="1" parent="1">
          <mxGeometry x="45" y="260" width="60" height="30" as="geometry" />
        </mxCell>
        <mxCell id="6A9R2vZPu0vE_zY2NeRu-35" value="" style="edgeStyle=orthogonalEdgeStyle;rounded=0;orthogonalLoop=1;jettySize=auto;html=1;entryX=1;entryY=0.5;entryDx=0;entryDy=0;entryPerimeter=0;" edge="1" parent="1" source="6A9R2vZPu0vE_zY2NeRu-32" target="6A9R2vZPu0vE_zY2NeRu-36">
          <mxGeometry relative="1" as="geometry">
            <mxPoint x="641" y="459" as="targetPoint" />
            <Array as="points">
              <mxPoint x="638" y="440" />
              <mxPoint x="638" y="439" />
            </Array>
          </mxGeometry>
        </mxCell>
        <mxCell id="6A9R2vZPu0vE_zY2NeRu-32" value="" style="sketch=0;points=[[0,0,0],[0.25,0,0],[0.5,0,0],[0.75,0,0],[1,0,0],[0,1,0],[0.25,1,0],[0.5,1,0],[0.75,1,0],[1,1,0],[0,0.25,0],[0,0.5,0],[0,0.75,0],[1,0.25,0],[1,0.5,0],[1,0.75,0]];outlineConnect=0;fontColor=#232F3E;fillColor=#8C4FFF;strokeColor=#ffffff;dashed=0;verticalLabelPosition=bottom;verticalAlign=top;align=center;html=1;fontSize=12;fontStyle=0;aspect=fixed;shape=mxgraph.aws4.resourceIcon;resIcon=mxgraph.aws4.glue;" vertex="1" parent="1">
          <mxGeometry x="720" y="390" width="78" height="78" as="geometry" />
        </mxCell>
        <mxCell id="6A9R2vZPu0vE_zY2NeRu-33" value="&lt;h3&gt;AWS Glue&lt;/h3&gt;" style="text;html=1;align=center;verticalAlign=middle;whiteSpace=wrap;rounded=0;" vertex="1" parent="1">
          <mxGeometry x="729" y="480" width="60" height="30" as="geometry" />
        </mxCell>
        <mxCell id="6A9R2vZPu0vE_zY2NeRu-36" value="" style="sketch=0;points=[[0,0,0],[0.25,0,0],[0.5,0,0],[0.75,0,0],[1,0,0],[0,1,0],[0.25,1,0],[0.5,1,0],[0.75,1,0],[1,1,0],[0,0.25,0],[0,0.5,0],[0,0.75,0],[1,0.25,0],[1,0.5,0],[1,0.75,0]];outlineConnect=0;fontColor=#232F3E;fillColor=#8C4FFF;strokeColor=#ffffff;dashed=0;verticalLabelPosition=bottom;verticalAlign=top;align=center;html=1;fontSize=12;fontStyle=0;aspect=fixed;shape=mxgraph.aws4.resourceIcon;resIcon=mxgraph.aws4.athena;" vertex="1" parent="1">
          <mxGeometry x="530" y="390" width="98" height="98" as="geometry" />
        </mxCell>
        <mxCell id="6A9R2vZPu0vE_zY2NeRu-37" value="&lt;h3&gt;AWS Athena&lt;/h3&gt;" style="text;html=1;align=center;verticalAlign=middle;whiteSpace=wrap;rounded=0;" vertex="1" parent="1">
          <mxGeometry x="549" y="490" width="60" height="30" as="geometry" />
        </mxCell>
        <mxCell id="6A9R2vZPu0vE_zY2NeRu-38" value="" style="verticalLabelPosition=bottom;html=1;verticalAlign=top;align=center;strokeColor=none;fillColor=#00BEF2;shape=mxgraph.azure.sql_database;" vertex="1" parent="1">
          <mxGeometry x="510" y="460" width="20" height="30" as="geometry" />
        </mxCell>
      </root>
    </mxGraphModel>
  </diagram>
</mxfile>
